<svg id="svg" version="1.1" xmlns="http://www.w3.org/2000/svg" xmlns:xlink="http://www.w3.org/1999/xlink" width="400" height="307.0707070707071" viewBox="0, 0, 400,307.0707070707071"><g id="svgg"><path id="path0" d="M231.932 127.746 C 229.404 129.964,229.230 130.006,220.819 130.394 C 211.806 130.811,211.943 130.759,212.718 133.423 C 213.216 135.137,213.303 137.331,212.939 139.017 C 212.754 139.872,213.599 144.680,214.856 149.923 C 215.120 151.022,215.551 153.856,215.814 156.221 C 216.078 158.587,216.443 161.490,216.626 162.673 C 216.809 163.856,217.080 168.556,217.228 173.118 C 217.502 181.548,217.971 185.492,218.861 186.849 C 219.518 187.852,223.325 189.902,229.617 192.641 C 240.999 197.596,248.385 203.266,254.224 211.530 C 258.484 217.560,258.623 217.620,263.457 215.515 C 267.279 213.850,267.895 213.822,270.046 215.207 C 272.396 216.721,272.850 216.651,280.749 213.545 C 284.578 212.039,291.816 209.212,296.834 207.263 C 311.230 201.672,311.039 202.826,298.618 196.530 C 289.884 192.104,282.745 188.143,276.344 184.174 C 274.485 183.021,271.444 181.219,269.585 180.170 C 246.717 167.259,231.884 146.996,233.381 130.710 C 233.774 126.438,233.668 126.222,231.932 127.746 M287.788 128.015 C 287.025 128.214,287.099 128.383,288.456 129.545 C 289.119 130.112,289.973 131.265,290.353 132.106 C 291.193 133.965,291.380 133.857,291.275 131.575 C 291.130 128.444,290.115 127.407,287.788 128.015 M257.504 128.814 C 256.342 130.213,257.740 130.650,261.147 129.952 C 264.679 129.228,264.728 129.168,261.988 128.918 C 260.759 128.805,259.332 128.635,258.815 128.539 C 258.191 128.424,257.751 128.516,257.504 128.814 M59.370 134.587 C 58.183 134.944,58.178 134.985,59.063 136.904 C 59.731 138.352,59.759 138.790,59.908 149.975 C 60.063 161.652,60.128 162.304,61.075 161.707 C 61.547 161.410,61.612 160.290,61.751 150.197 C 61.948 135.905,61.866 136.098,67.709 136.098 C 73.049 136.098,71.751 135.045,66.052 134.753 C 63.940 134.645,61.797 134.496,61.290 134.422 C 60.783 134.348,59.919 134.422,59.370 134.587 M129.357 135.309 C 129.086 135.635,129.076 136.053,129.318 136.922 C 129.519 137.647,129.659 142.848,129.685 150.538 C 129.743 167.671,130.110 170.584,131.465 164.670 C 132.034 162.189,131.899 135.937,131.314 135.352 C 130.713 134.750,129.837 134.731,129.357 135.309 M100.452 138.265 C 100.208 138.721,100.071 141.701,100.024 147.578 C 99.966 154.787,99.864 156.533,99.410 158.100 C 98.749 160.387,99.236 161.905,100.630 161.905 C 101.786 161.905,101.997 160.914,101.997 155.481 C 101.997 151.434,102.098 150.339,102.611 148.848 C 103.374 146.633,103.377 146.047,102.638 144.355 C 102.315 143.616,101.954 141.943,101.835 140.638 C 101.599 138.043,101.063 137.124,100.452 138.265 M292.583 141.475 C 292.688 142.151,292.775 142.945,292.777 143.241 C 292.779 143.537,292.916 143.779,293.082 143.779 C 293.460 143.779,293.129 140.982,292.701 140.553 C 292.495 140.348,292.456 140.655,292.583 141.475 M108.974 145.506 C 108.869 145.611,109.151 146.406,109.599 147.272 C 110.362 148.744,110.427 149.192,110.586 154.071 C 110.734 158.587,110.842 159.439,111.386 160.368 C 112.210 161.775,113.233 162.050,112.932 160.783 C 112.245 157.899,112.139 156.763,112.174 152.715 C 112.196 150.192,112.072 147.882,111.890 147.429 C 111.360 146.111,109.558 144.922,108.974 145.506 M149.117 145.764 C 149.022 146.012,149.165 147.092,149.434 148.165 C 150.091 150.787,150.047 153.844,149.306 156.932 C 148.578 159.971,148.734 160.456,150.721 161.335 C 152.493 162.119,152.839 161.868,152.069 160.358 C 150.853 157.975,150.458 155.331,150.624 150.669 C 150.710 148.226,150.651 146.122,150.488 145.830 C 150.133 145.195,149.350 145.158,149.117 145.764 M158.793 145.824 C 158.470 146.214,158.372 147.633,158.372 151.892 C 158.372 157.438,158.370 157.454,157.466 159.239 C 156.446 161.250,156.591 161.985,158.037 162.157 C 159.638 162.348,159.754 161.971,159.758 156.568 C 159.762 151.881,159.811 151.472,160.668 149.012 C 161.505 146.605,161.536 146.370,161.077 145.863 C 160.454 145.175,159.346 145.156,158.793 145.824 M166.513 145.632 C 166.513 145.807,166.856 146.626,167.275 147.453 C 168.359 149.592,168.702 151.350,168.957 156.068 L 169.181 160.215 169.230 156.426 C 169.264 153.764,169.463 151.912,169.900 150.199 C 170.627 147.352,170.485 146.858,168.666 145.930 C 167.342 145.255,166.513 145.140,166.513 145.632 M176.344 145.602 C 176.344 145.759,176.757 146.554,177.261 147.368 C 178.452 149.290,178.802 151.271,178.802 156.095 C 178.802 160.073,179.077 161.401,179.970 161.744 C 180.873 162.091,180.928 161.420,180.132 159.748 C 179.287 157.973,179.248 157.532,179.413 151.613 C 179.504 148.365,179.234 147.203,178.113 146.006 C 177.467 145.316,176.344 145.059,176.344 145.602 M139.300 148.534 C 137.542 151.217,137.911 158.898,139.878 160.553 C 141.133 161.609,141.184 161.370,140.273 158.728 C 139.353 156.063,139.244 153.287,139.945 150.384 C 140.619 147.592,140.375 146.893,139.300 148.534 M70.514 148.794 C 68.728 151.520,68.953 158.312,70.902 160.466 C 72.380 162.099,74.218 162.199,72.996 160.580 C 71.993 159.251,71.601 157.644,71.892 156.052 C 72.058 155.145,71.989 154.251,71.670 153.178 C 71.368 152.161,71.273 151.064,71.395 150.022 C 71.608 148.213,71.235 147.694,70.514 148.794 M86.413 148.456 C 85.630 149.444,84.485 154.765,84.485 157.417 C 84.485 158.584,85.918 160.285,87.663 161.190 C 88.899 161.831,89.002 161.507,88.094 159.833 C 86.515 156.920,85.931 152.790,86.654 149.652 C 86.987 148.209,86.910 147.829,86.413 148.456 M294.685 152.074 C 294.685 152.496,294.796 153.187,294.931 153.610 L 295.177 154.378 295.177 153.610 C 295.177 153.187,295.066 152.496,294.931 152.074 L 294.685 151.306 294.685 152.074 M296.779 165.591 C 296.756 169.369,295.863 170.347,292.009 170.815 C 287.405 171.373,280.151 172.866,279.661 173.357 C 278.920 174.098,279.363 175.108,281.410 177.341 C 284.464 180.674,287.485 181.533,292.663 180.538 C 297.017 179.702,300.485 179.561,301.668 180.173 C 302.230 180.464,303.384 180.908,304.231 181.159 C 305.079 181.411,306.276 181.950,306.890 182.357 C 307.505 182.764,308.695 183.186,309.534 183.296 C 312.733 183.714,312.853 184.260,310.061 185.703 C 305.344 188.142,305.338 188.516,309.992 190.447 C 317.042 193.371,317.551 194.000,314.358 195.841 C 311.855 197.284,311.828 198.758,314.273 200.452 C 316.335 201.881,318.177 201.770,319.021 200.164 C 319.955 198.389,320.662 198.021,330.500 194.190 C 336.153 191.988,339.688 190.445,340.111 189.996 L 340.779 189.285 340.001 188.564 C 339.573 188.168,338.209 187.478,336.970 187.031 C 335.730 186.585,330.845 184.835,326.114 183.142 C 302.435 174.673,301.502 174.300,300.166 172.778 C 299.275 171.763,297.993 168.206,297.520 165.438 C 297.127 163.140,296.793 163.209,296.779 165.591 " stroke="none" fill="#222a5d" fill-rule="evenodd"></path><path id="path1" d="M0.000 153.610 L 0.000 307.220 200.000 307.220 L 400.000 307.220 400.000 153.610 L 400.000 0.000 200.000 0.000 L 0.000 0.000 0.000 153.610 M267.430 105.453 C 267.320 105.833,266.191 108.336,264.922 111.015 C 262.371 116.400,260.843 120.811,260.835 122.819 C 260.827 124.660,261.220 124.753,267.640 124.422 C 287.376 123.404,292.287 123.642,293.788 125.692 C 294.424 126.559,295.903 132.655,296.480 136.787 C 296.674 138.182,297.156 140.776,297.549 142.550 C 297.943 144.324,298.423 146.882,298.617 148.233 C 298.811 149.585,299.166 151.469,299.407 152.420 C 299.647 153.371,300.186 156.136,300.604 158.565 C 302.697 170.730,302.926 171.359,305.592 172.295 C 306.572 172.639,310.276 173.976,313.825 175.265 C 317.373 176.554,322.350 178.352,324.885 179.260 C 345.807 186.756,346.237 186.952,346.237 189.011 C 346.237 191.165,344.906 191.977,335.025 195.855 C 322.845 200.635,323.113 200.319,328.571 203.441 C 341.582 210.882,344.398 212.881,343.627 214.129 C 343.273 214.702,341.080 214.446,337.425 213.405 C 335.428 212.837,332.204 212.066,330.261 211.693 C 328.318 211.320,325.484 210.678,323.963 210.267 C 322.442 209.856,321.060 209.520,320.891 209.521 C 320.722 209.521,318.237 208.762,315.369 207.833 C 312.501 206.904,309.828 206.144,309.429 206.144 C 308.622 206.144,303.963 207.882,289.401 213.615 C 286.613 214.712,282.673 216.251,280.645 217.035 C 278.618 217.818,276.283 218.730,275.458 219.061 C 273.224 219.957,271.147 219.849,269.278 218.740 C 267.310 217.573,266.520 217.589,263.643 218.854 C 258.128 221.279,256.968 220.839,252.768 214.735 C 245.597 204.311,238.778 199.539,221.112 192.581 C 215.757 190.472,215.911 190.641,212.037 182.688 C 206.682 171.698,202.687 165.236,197.313 158.874 C 190.716 151.063,190.684 149.441,197.113 148.657 C 201.547 148.116,201.751 147.700,199.555 143.670 C 196.530 138.121,197.911 136.114,204.762 136.098 C 205.607 136.096,206.833 135.946,207.487 135.765 L 208.676 135.434 208.471 134.000 C 207.447 126.846,207.382 126.886,221.198 126.286 C 228.396 125.974,228.275 126.021,230.993 122.459 C 238.608 112.478,247.110 108.901,242.386 117.665 C 236.091 129.346,235.612 136.360,240.421 146.436 C 245.254 156.562,257.786 168.848,272.767 178.146 C 281.921 183.828,282.602 183.932,277.727 178.906 C 259.599 160.217,254.077 150.508,253.120 135.637 C 252.534 126.530,254.137 120.473,259.096 113.057 C 262.546 107.896,268.220 102.719,267.430 105.453 M69.278 131.452 C 74.413 131.687,75.089 131.907,75.781 133.561 C 77.234 137.041,74.031 139.785,68.516 139.785 C 65.446 139.785,65.438 139.796,65.438 143.969 C 65.438 148.868,65.731 149.377,67.142 146.928 C 70.735 140.692,76.911 139.136,81.401 143.336 C 83.132 144.956,83.473 144.999,84.658 143.750 C 86.886 141.404,90.373 140.544,93.844 141.483 C 96.375 142.168,96.492 142.068,96.768 138.958 C 97.103 135.179,98.381 133.641,101.184 133.641 C 103.722 133.641,104.725 134.895,105.080 138.515 C 105.338 141.143,105.503 141.310,107.865 141.316 C 113.648 141.332,115.868 144.639,115.939 153.341 C 115.986 159.224,116.235 159.609,119.809 159.346 C 121.073 159.253,122.772 159.319,123.584 159.493 C 125.987 160.009,126.015 159.939,125.902 153.724 C 125.795 147.803,125.630 147.263,124.251 148.348 C 122.286 149.893,119.073 148.853,117.720 146.234 C 114.448 139.900,121.752 131.183,130.332 131.183 C 134.402 131.183,134.952 132.168,135.169 139.837 C 135.362 146.685,135.251 146.513,137.876 144.037 C 141.393 140.720,149.646 139.707,153.133 142.166 C 154.826 143.359,154.846 143.361,156.474 142.432 C 158.324 141.377,166.047 141.055,169.034 141.910 C 170.949 142.457,171.043 142.457,172.826 141.882 C 179.674 139.675,183.097 143.190,183.395 152.734 L 183.564 158.157 184.579 159.420 C 186.594 161.925,186.421 163.935,184.056 165.511 C 180.471 167.898,175.348 164.413,174.307 158.879 C 174.073 157.634,173.591 158.156,173.584 159.662 C 173.574 161.808,172.901 163.873,171.879 164.895 C 169.433 167.342,164.363 165.126,164.363 161.610 C 164.363 160.497,163.839 160.944,163.429 162.407 C 162.968 164.055,161.440 165.740,160.189 165.979 C 158.633 166.276,151.952 165.881,150.191 165.387 C 148.576 164.934,148.354 164.940,146.812 165.466 C 143.401 166.630,139.990 165.964,137.406 163.629 C 135.503 161.910,135.533 161.881,134.863 166.052 C 133.279 175.914,118.784 178.312,115.482 169.257 C 114.726 167.183,114.364 166.816,112.333 166.067 C 108.434 164.627,107.446 162.623,107.228 155.708 C 107.061 150.418,106.939 149.870,106.053 150.428 C 105.288 150.909,105.146 151.979,105.105 157.537 C 105.049 165.329,103.546 167.254,98.819 165.585 L 96.903 164.909 94.592 165.557 C 90.954 166.578,88.616 166.269,85.627 164.373 C 83.790 163.208,82.850 163.207,81.135 164.369 C 76.752 167.339,71.096 166.489,67.808 162.366 C 65.925 160.004,65.894 160.001,65.285 162.118 C 64.215 165.839,60.864 167.311,58.212 165.225 C 56.589 163.948,56.528 163.461,56.528 151.637 C 56.528 139.540,56.478 139.171,54.823 139.171 C 52.800 139.171,52.401 139.901,52.228 143.932 C 51.891 151.775,45.017 150.414,44.613 142.425 C 44.228 134.817,50.279 130.578,60.829 131.064 C 62.942 131.161,66.743 131.335,69.278 131.452 M270.109 133.370 C 261.402 133.737,261.288 133.854,264.223 139.410 C 269.865 150.089,279.301 159.318,289.752 164.377 C 292.686 165.797,292.710 164.825,290.068 151.613 C 289.212 147.332,287.317 137.140,287.077 135.528 C 286.670 132.793,285.950 132.701,270.109 133.370 M143.886 150.000 C 142.636 152.387,143.064 157.604,144.509 157.604 C 145.536 157.604,145.930 156.330,145.925 153.026 C 145.919 148.888,145.103 147.677,143.886 150.000 M90.660 150.891 C 89.877 153.136,90.413 157.301,91.564 157.917 C 93.981 159.211,96.498 157.410,96.544 154.351 C 96.569 152.705,96.193 152.232,94.525 151.813 C 93.806 151.631,92.887 151.132,92.484 150.703 C 91.517 149.673,91.068 149.719,90.660 150.891 M173.958 153.303 C 173.958 153.894,174.021 154.136,174.098 153.840 C 174.175 153.545,174.175 153.061,174.098 152.765 C 174.021 152.469,173.958 152.711,173.958 153.303 M78.783 155.836 C 76.515 157.101,76.396 157.203,76.594 157.719 C 77.133 159.122,81.038 157.376,80.745 155.864 C 80.593 155.084,80.144 155.078,78.783 155.836 " stroke="none" fill="#fbfbfb" fill-rule="evenodd"></path><path id="path2" d="M234.382 122.208 C 233.298 123.355,231.872 124.962,231.212 125.779 C 229.303 128.145,228.617 128.328,220.118 128.741 C 210.341 129.215,209.711 129.516,210.863 133.170 C 212.116 137.146,211.375 138.005,206.230 138.533 C 200.680 139.102,200.498 139.386,202.735 143.988 C 205.279 149.222,204.758 150.996,200.457 151.745 C 196.681 152.402,196.685 152.484,200.751 157.568 C 207.312 165.771,211.818 173.876,216.115 185.202 C 216.586 186.441,217.306 187.823,217.717 188.274 L 218.464 189.094 217.825 187.782 C 217.291 186.687,215.449 180.485,214.428 176.344 C 213.183 171.295,209.617 160.199,207.480 154.723 C 206.825 153.043,206.307 151.040,206.132 149.509 C 205.917 147.625,205.549 146.399,204.614 144.449 C 202.794 140.656,202.896 140.407,206.452 139.952 C 211.501 139.306,212.903 137.559,211.521 133.641 C 210.220 129.955,210.729 129.659,218.969 129.304 C 229.511 128.850,229.193 128.950,232.463 125.049 C 236.011 120.816,236.731 121.083,235.468 126.162 C 231.531 141.991,239.968 157.255,261.808 173.818 C 263.614 175.188,265.550 176.539,266.109 176.822 C 267.474 177.511,267.081 177.165,263.287 174.341 C 250.874 165.098,243.095 156.785,238.858 148.233 C 234.352 139.140,233.876 133.105,236.885 123.240 C 238.055 119.403,237.320 119.100,234.382 122.208 M256.573 125.446 C 255.321 126.954,254.929 130.362,255.742 132.667 C 255.985 133.357,256.330 135.222,256.507 136.812 C 257.750 147.960,262.474 157.243,272.505 168.248 C 273.711 169.570,275.176 171.563,275.762 172.678 C 276.347 173.793,277.402 175.246,278.105 175.908 L 279.383 177.112 278.538 175.959 C 276.642 173.370,276.878 171.652,279.184 171.262 C 279.818 171.154,281.995 170.733,284.021 170.326 C 286.145 169.899,288.783 169.585,290.252 169.585 C 295.959 169.585,296.252 168.672,294.051 157.757 C 293.710 156.068,292.930 151.989,292.317 148.694 C 290.172 137.161,289.341 133.172,288.872 132.171 C 287.967 130.239,286.379 129.886,280.338 130.272 C 277.803 130.433,272.550 130.699,268.664 130.863 C 263.999 131.059,260.941 131.330,259.666 131.662 C 256.444 132.501,255.018 131.286,255.874 128.428 C 256.471 126.436,257.055 126.153,258.931 126.946 L 260.524 127.619 269.817 127.234 C 294.630 126.205,291.519 125.044,293.558 136.098 C 294.166 139.393,295.134 144.578,295.709 147.619 C 296.284 150.661,297.183 155.430,297.706 158.218 C 299.669 168.676,299.890 169.704,300.343 170.480 C 300.598 170.917,300.743 171.057,300.664 170.790 C 300.467 170.125,299.481 165.062,298.156 157.911 C 294.142 136.256,292.498 128.040,292.037 127.337 C 291.076 125.870,290.580 125.837,277.791 126.390 C 259.963 127.161,259.424 127.137,258.081 125.519 C 257.593 124.931,257.023 124.903,256.573 125.446 M286.776 131.004 C 288.683 131.800,288.573 131.410,291.992 149.616 C 292.610 152.911,293.525 157.715,294.024 160.292 C 294.523 162.868,294.931 165.442,294.931 166.011 C 294.931 174.610,271.957 159.414,263.536 145.244 C 255.679 132.023,255.859 131.732,272.267 131.165 C 277.371 130.989,281.609 130.782,281.685 130.706 C 282.009 130.382,285.822 130.605,286.776 131.004 M287.611 183.190 C 288.342 183.744,289.493 184.537,290.169 184.951 C 290.845 185.365,291.937 186.190,292.597 186.784 L 293.796 187.865 293.319 186.942 C 292.699 185.740,291.948 185.081,290.522 184.485 C 289.884 184.218,288.797 183.591,288.106 183.091 C 286.390 181.848,285.956 181.934,287.611 183.190 M294.009 187.859 C 294.009 187.940,294.597 188.300,295.315 188.660 C 296.033 189.019,297.073 189.744,297.627 190.270 L 298.633 191.226 298.294 190.254 C 297.875 189.052,297.616 188.847,295.721 188.216 C 294.042 187.656,294.009 187.649,294.009 187.859 M305.055 191.511 C 304.962 191.606,303.867 191.757,302.622 191.848 C 299.774 192.055,299.741 192.104,302.025 192.739 C 305.641 193.745,308.604 195.693,309.385 197.579 C 309.814 198.615,310.599 198.165,310.599 196.884 C 310.599 196.586,311.152 195.898,311.828 195.355 C 312.504 194.812,313.057 194.190,313.057 193.973 C 313.057 192.882,305.876 190.673,305.055 191.511 " stroke="none" fill="#7c7cb9" fill-rule="evenodd"></path><path id="path3" d="M237.811 117.387 C 236.439 118.224,233.855 120.919,231.630 123.834 C 228.825 127.508,229.122 127.425,216.835 127.963 C 209.132 128.300,208.828 128.631,210.344 135.037 C 210.699 136.537,209.633 137.070,205.400 137.508 C 199.125 138.157,198.853 138.629,201.561 144.166 C 203.944 149.040,203.540 149.754,198.039 150.385 C 193.923 150.857,194.003 152.074,198.501 157.450 C 204.948 165.154,209.763 173.269,215.020 185.286 C 216.768 189.282,216.856 189.347,225.653 193.088 C 240.190 199.270,247.000 204.246,253.154 213.185 C 257.730 219.833,257.997 219.923,264.670 217.082 C 267.076 216.058,267.399 216.078,269.531 217.394 C 272.076 218.965,272.471 218.880,284.639 214.128 C 290.384 211.884,296.467 209.509,298.157 208.851 C 309.818 204.307,309.342 204.395,314.317 205.849 C 321.259 207.878,322.313 208.131,329.800 209.557 C 336.253 210.786,335.653 209.554,327.343 204.511 C 319.872 199.978,319.270 200.616,337.803 193.425 C 346.631 190.000,346.628 188.338,337.788 185.250 C 335.760 184.542,332.857 183.502,331.336 182.940 C 329.816 182.377,325.253 180.722,321.198 179.263 C 301.657 172.231,302.617 172.632,301.893 171.195 C 301.486 170.389,300.670 166.466,298.620 155.453 C 293.399 127.407,293.261 126.797,291.882 125.744 C 290.979 125.054,288.829 124.972,280.736 125.320 C 257.473 126.321,259.240 126.606,258.989 121.812 L 258.833 118.835 258.017 119.478 C 257.163 120.152,255.737 123.249,254.823 126.417 C 253.959 129.409,254.598 138.041,256.119 143.932 C 258.322 152.470,263.324 160.758,271.809 169.934 C 272.804 171.009,274.390 172.926,275.335 174.194 C 277.261 176.780,281.575 180.797,283.791 182.070 C 285.638 183.131,290.184 186.334,291.398 187.429 C 291.905 187.887,293.101 188.755,294.056 189.359 C 295.695 190.395,297.081 191.771,297.081 192.361 C 297.081 194.332,273.541 180.974,262.980 173.010 C 238.798 154.773,231.523 139.298,238.730 121.425 C 240.647 116.670,240.445 115.781,237.811 117.387 M237.481 120.705 C 237.481 121.025,237.213 122.166,236.885 123.240 C 233.876 133.105,234.352 139.140,238.858 148.233 C 243.862 158.334,256.337 170.574,270.321 179.103 C 272.451 180.402,276.129 182.646,278.495 184.089 C 292.903 192.877,308.940 200.556,309.553 198.959 C 310.309 196.988,306.785 194.141,301.727 192.637 C 300.002 192.124,299.120 191.647,298.040 190.644 C 297.259 189.919,296.046 189.035,295.343 188.680 C 294.640 188.325,293.447 187.499,292.691 186.845 C 291.935 186.191,290.781 185.332,290.128 184.937 C 289.475 184.542,288.538 183.889,288.047 183.486 C 287.555 183.083,286.104 182.223,284.821 181.575 C 281.864 180.081,277.086 175.356,275.646 172.504 C 275.134 171.490,273.725 169.577,272.515 168.252 C 262.500 157.292,257.750 147.964,256.507 136.812 C 256.330 135.222,255.985 133.357,255.742 132.667 C 254.440 128.976,256.204 123.798,258.157 125.576 C 259.903 127.165,259.895 127.164,277.791 126.390 C 290.580 125.837,291.076 125.870,292.037 127.337 C 292.498 128.040,294.142 136.256,298.156 157.911 C 300.709 171.685,300.758 171.866,302.193 172.882 C 302.986 173.444,308.489 175.579,315.054 177.872 C 316.406 178.344,320.035 179.645,323.118 180.763 C 326.202 181.881,331.223 183.697,334.276 184.798 C 341.392 187.365,342.857 188.096,342.857 189.077 C 342.857 190.600,342.549 190.762,331.160 195.216 C 319.104 199.930,318.714 200.443,324.424 204.062 C 328.906 206.902,327.220 207.942,321.045 206.147 C 319.946 205.827,318.425 205.436,317.665 205.278 C 316.905 205.119,315.395 204.751,314.311 204.461 C 310.424 203.418,309.280 203.678,297.542 208.267 C 270.161 218.973,272.282 218.339,269.808 216.562 C 267.932 215.215,266.971 215.259,263.350 216.862 C 258.510 219.004,258.029 218.831,254.312 213.607 C 247.731 204.355,240.981 198.967,229.954 194.165 C 217.239 188.626,217.472 188.778,216.100 185.162 C 211.820 173.881,207.303 165.760,200.751 157.568 C 196.685 152.484,196.681 152.402,200.457 151.745 C 204.758 150.996,205.279 149.222,202.735 143.988 C 200.498 139.386,200.680 139.102,206.230 138.533 C 211.375 138.005,212.116 137.146,210.863 133.170 C 209.711 129.516,210.341 129.215,220.118 128.741 C 228.617 128.328,229.303 128.145,231.212 125.779 C 234.858 121.261,237.481 119.138,237.481 120.705 M281.685 130.706 C 281.609 130.782,277.371 130.989,272.267 131.165 C 255.859 131.732,255.679 132.023,263.536 145.244 C 268.164 153.032,275.177 159.694,284.920 165.557 C 293.962 170.998,295.882 169.888,294.024 160.292 C 293.525 157.715,292.610 152.911,291.992 149.616 C 288.573 131.410,288.683 131.800,286.776 131.004 C 285.822 130.605,282.009 130.382,281.685 130.706 M287.269 132.640 C 287.719 133.144,288.180 134.093,288.293 134.750 C 288.590 136.471,290.501 146.721,291.695 152.995 C 294.317 166.769,294.175 165.753,293.596 166.637 C 292.609 168.143,290.637 167.373,283.601 162.730 C 273.299 155.934,268.068 150.393,262.887 140.787 C 258.456 132.573,258.488 132.540,271.315 132.091 C 276.109 131.923,280.515 131.734,281.106 131.671 C 284.214 131.343,286.420 131.690,287.269 132.640 M57.604 132.302 C 50.508 132.929,46.306 136.039,45.861 140.992 C 45.565 144.286,47.071 147.158,49.094 147.158 C 50.505 147.158,50.833 146.479,50.918 143.381 C 51.029 139.357,52.350 137.636,55.329 137.635 C 57.624 137.634,57.584 137.415,57.757 150.830 C 57.919 163.329,57.897 163.142,59.293 164.276 C 59.967 164.823,61.803 164.738,62.560 164.125 C 64.012 162.949,64.038 162.718,64.047 150.954 C 64.057 137.564,63.657 138.698,68.446 138.494 C 73.685 138.272,76.052 136.221,73.925 133.748 C 73.202 132.908,73.144 132.897,68.318 132.679 C 65.635 132.558,62.404 132.399,61.137 132.326 C 59.869 132.253,58.280 132.243,57.604 132.302 M127.149 132.982 C 119.602 135.467,115.532 143.306,119.973 146.799 C 122.125 148.491,123.380 147.426,123.563 143.755 C 123.827 138.447,126.769 136.162,127.350 140.815 C 127.537 142.309,127.338 158.105,127.048 164.795 C 126.883 168.614,125.251 170.680,123.272 169.574 C 121.214 168.424,121.401 166.468,123.699 165.121 C 127.358 162.977,125.270 160.493,120.095 160.832 C 115.238 161.151,114.676 160.329,114.521 152.688 C 114.358 144.609,112.419 142.064,106.912 142.704 C 105.238 142.898,104.206 142.519,104.128 141.683 C 103.574 135.706,103.205 134.869,101.126 134.869 C 99.015 134.869,98.261 136.219,97.973 140.516 C 97.679 144.893,97.428 145.184,95.189 143.747 C 91.685 141.498,87.577 142.251,84.825 145.646 C 82.895 148.028,82.832 148.038,81.626 146.167 C 77.611 139.940,70.243 141.685,67.717 149.462 C 64.148 160.448,72.330 168.795,80.772 162.782 C 82.800 161.338,83.715 161.293,85.288 162.559 C 88.161 164.873,91.374 165.309,95.129 163.896 L 97.184 163.123 98.663 163.896 C 102.759 166.038,103.754 164.643,103.920 156.528 C 104.046 150.386,104.388 148.938,105.842 148.385 C 107.834 147.628,108.449 149.146,108.449 154.829 C 108.449 161.599,109.482 163.760,113.232 164.836 C 115.588 165.511,115.669 165.589,116.438 167.902 C 117.707 171.714,119.228 172.710,124.081 172.908 C 130.841 173.183,133.341 170.652,133.961 162.907 C 134.459 156.698,134.688 156.341,136.222 159.388 C 138.677 164.263,142.354 165.930,146.501 164.049 C 148.171 163.290,148.599 163.291,150.538 164.055 C 151.810 164.557,152.821 164.670,156.038 164.670 C 161.968 164.670,162.196 164.358,162.228 156.221 C 162.253 149.653,163.107 147.426,165.010 148.966 C 165.733 149.551,165.748 149.666,165.899 155.978 C 166.070 163.139,166.223 163.709,168.148 164.344 C 171.149 165.335,171.850 163.905,172.047 156.390 C 172.223 149.709,172.484 148.615,173.946 148.445 C 175.504 148.265,175.829 149.324,176.039 155.263 C 176.276 161.981,177.327 164.250,180.474 164.840 C 183.746 165.454,185.226 163.052,183.333 160.197 L 182.335 158.690 182.181 153.308 C 181.916 144.015,178.825 140.760,172.762 143.391 L 171.178 144.079 168.769 143.292 C 166.854 142.666,166.076 142.553,164.977 142.739 C 164.217 142.867,162.319 142.981,160.760 142.992 C 156.238 143.022,155.798 143.802,155.774 151.829 C 155.761 156.297,155.469 157.911,154.673 157.911 C 153.834 157.911,153.668 156.935,153.552 151.306 C 153.375 142.718,153.241 142.546,146.706 142.557 C 140.416 142.567,138.521 143.754,136.401 149.013 C 134.582 153.526,134.235 152.544,133.985 142.172 L 133.794 134.268 132.969 133.444 C 131.883 132.358,129.595 132.176,127.149 132.982 M66.490 133.337 C 72.699 133.664,73.425 133.872,73.425 135.324 C 73.425 136.901,72.158 137.460,68.189 137.635 C 62.976 137.865,63.472 136.577,63.287 150.373 C 63.114 163.364,63.071 163.594,60.829 163.594 C 58.582 163.594,58.545 163.393,58.372 150.132 C 58.190 136.275,58.258 136.536,54.882 136.666 C 51.849 136.782,50.177 138.852,49.867 142.875 C 49.663 145.512,49.515 145.779,48.404 145.500 C 45.859 144.862,46.388 138.635,49.188 136.267 C 52.609 133.375,56.067 132.789,66.490 133.337 M132.247 134.063 C 133.333 135.148,133.395 136.210,133.260 151.317 C 133.113 167.687,132.900 168.861,129.671 171.037 C 127.124 172.754,125.775 171.729,127.077 169.067 C 128.614 165.925,129.067 139.681,127.618 137.732 C 125.597 135.013,122.581 138.592,122.581 143.710 C 122.581 146.185,121.517 146.953,120.132 145.479 C 117.827 143.025,119.866 137.776,123.810 136.011 C 124.570 135.670,125.607 135.085,126.114 134.709 C 128.186 133.174,131.056 132.871,132.247 134.063 M101.985 136.092 C 102.766 136.510,103.226 138.015,103.226 140.153 C 103.226 143.396,104.066 144.264,106.674 143.717 C 111.813 142.639,113.671 145.202,113.671 153.368 C 113.671 158.415,113.862 159.208,115.537 161.115 C 116.655 162.388,116.344 162.352,120.808 161.724 C 123.901 161.288,124.518 162.621,122.273 164.889 C 120.600 166.580,120.317 167.736,121.198 169.278 C 121.917 170.535,121.783 171.121,120.779 171.121 C 119.052 171.121,117.757 169.549,117.067 166.615 C 116.598 164.619,116.078 164.168,114.032 163.982 C 110.486 163.661,109.319 161.623,109.338 155.791 C 109.361 149.270,108.648 147.158,106.425 147.158 C 104.055 147.158,103.236 149.466,103.210 156.221 C 103.179 164.353,102.549 165.021,97.641 162.128 L 96.510 161.462 95.147 162.441 C 92.210 164.550,89.125 164.378,85.924 161.926 C 84.879 161.126,83.696 160.296,83.294 160.081 C 82.621 159.721,82.581 159.567,82.777 158.110 C 82.894 157.240,83.100 155.047,83.235 153.237 C 83.856 144.915,90.187 140.510,94.840 145.162 C 96.878 147.201,95.815 148.950,93.699 147.038 C 90.710 144.338,88.076 147.493,88.085 153.763 C 88.092 158.468,89.659 160.455,93.694 160.877 C 97.611 161.287,98.621 158.849,98.549 149.155 C 98.461 137.232,99.159 134.579,101.985 136.092 M78.773 144.630 C 81.592 146.247,81.713 150.399,78.994 152.246 C 77.069 153.554,76.678 153.169,77.727 150.998 C 78.532 149.330,78.532 147.042,77.727 146.237 C 75.207 143.717,71.432 149.947,73.656 152.957 C 74.504 154.104,74.508 154.313,73.718 155.945 C 72.617 158.219,74.157 160.356,77.240 160.834 C 79.872 161.241,80.069 161.472,78.794 162.653 C 75.630 165.585,69.853 163.412,68.387 158.738 C 65.545 149.679,72.084 140.796,78.773 144.630 M151.201 143.892 C 152.133 144.328,152.353 145.726,152.444 151.781 C 152.548 158.702,152.796 159.566,154.627 159.388 C 156.397 159.217,156.799 157.810,156.939 151.306 C 157.097 143.948,157.388 143.427,161.068 143.915 C 161.998 144.038,163.446 143.968,164.562 143.747 C 166.324 143.397,166.603 143.421,168.257 144.068 C 171.031 145.154,171.734 145.175,173.543 144.229 C 178.474 141.651,181.019 144.591,181.265 153.149 C 181.424 158.665,181.427 158.683,182.411 160.477 C 184.226 163.785,181.380 165.466,178.627 162.713 C 177.262 161.348,176.976 160.012,176.871 154.504 C 176.774 149.421,176.461 148.268,174.955 147.462 C 172.260 146.020,171.128 148.935,171.124 157.332 C 171.121 162.391,170.756 163.441,168.996 163.441 C 167.169 163.441,166.990 162.811,166.820 155.791 C 166.654 148.912,166.475 148.162,164.820 147.408 C 162.525 146.363,161.501 148.844,161.372 155.760 C 161.217 164.026,161.407 163.748,155.920 163.748 C 152.484 163.748,151.882 163.664,150.120 162.941 L 148.154 162.133 146.390 162.941 C 140.544 165.617,135.963 161.265,136.492 153.540 C 136.808 148.931,138.682 145.302,141.368 144.099 C 142.598 143.549,150.126 143.390,151.201 143.892 M144.059 146.322 C 140.520 148.707,139.912 158.226,143.191 159.921 C 146.128 161.440,147.706 159.510,147.998 154.043 C 148.367 147.114,146.965 144.364,144.059 146.322 M146.419 147.498 C 147.907 149.142,147.058 158.535,145.364 159.180 C 143.168 160.015,142.088 158.339,142.092 154.099 C 142.096 148.748,144.388 145.253,146.419 147.498 M77.118 147.784 C 77.530 148.553,77.278 149.453,76.279 150.786 C 74.912 152.611,73.568 151.539,74.177 149.110 C 74.605 147.405,76.466 146.566,77.118 147.784 M93.153 148.541 C 94.272 149.771,94.557 149.923,95.735 149.923 C 100.126 149.923,98.137 159.334,93.676 159.665 C 90.435 159.905,89.003 158.105,88.982 153.763 C 88.955 148.012,90.692 145.837,93.153 148.541 M82.204 153.471 C 83.072 158.095,79.064 161.410,75.346 159.143 C 73.418 157.968,74.131 156.334,77.266 154.740 C 78.111 154.310,79.286 153.611,79.877 153.185 C 81.404 152.086,81.957 152.154,82.204 153.471 " stroke="none" fill="#9a9ebd" fill-rule="evenodd"></path><path id="path4" d="M235.079 122.393 C 234.687 122.605,233.508 123.802,232.459 125.054 C 229.194 128.950,229.509 128.850,218.969 129.304 C 210.729 129.659,210.220 129.955,211.521 133.641 C 212.903 137.559,211.501 139.306,206.452 139.952 C 202.896 140.407,202.794 140.656,204.614 144.449 C 205.547 146.393,205.917 147.626,206.130 149.493 C 206.285 150.851,206.709 152.714,207.072 153.631 C 208.628 157.568,211.795 167.040,213.073 171.582 C 213.834 174.286,214.654 177.189,214.895 178.034 C 215.137 178.879,215.702 180.952,216.152 182.642 C 217.755 188.672,216.908 187.902,226.506 192.045 C 241.362 198.458,247.091 202.660,253.874 212.123 C 258.191 218.146,258.612 218.336,263.197 216.329 C 266.980 214.674,267.252 214.634,268.843 215.497 C 269.589 215.901,270.653 216.479,271.207 216.780 C 272.460 217.460,273.229 217.280,279.383 214.874 C 286.966 211.909,307.932 203.801,309.447 203.247 C 312.029 202.304,311.470 201.465,307.066 199.673 C 305.714 199.123,301.014 196.851,296.621 194.625 C 249.493 170.742,229.907 148.761,235.495 126.024 C 236.392 122.376,236.317 121.724,235.079 122.393 M256.587 127.031 C 254.229 130.029,255.957 132.628,259.666 131.662 C 260.941 131.330,263.999 131.059,268.664 130.863 C 272.550 130.699,277.803 130.433,280.338 130.272 C 286.379 129.886,287.967 130.239,288.872 132.171 C 289.341 133.172,290.172 137.161,292.317 148.694 C 292.930 151.989,293.710 156.068,294.051 157.757 C 296.252 168.672,295.959 169.585,290.252 169.585 C 288.783 169.585,286.145 169.899,284.021 170.326 C 281.995 170.733,279.818 171.154,279.184 171.262 C 277.603 171.529,276.930 172.556,277.400 173.981 C 277.900 175.497,282.745 180.132,284.822 181.081 C 287.381 182.251,291.089 184.623,293.145 186.404 C 294.169 187.291,295.542 188.177,296.198 188.373 C 296.933 188.594,297.701 189.139,298.201 189.794 C 299.573 191.593,301.221 192.114,304.170 191.683 C 307.275 191.229,308.470 191.390,311.020 192.608 C 313.395 193.741,313.479 194.028,311.828 195.355 C 308.253 198.228,314.218 204.301,320.615 204.301 C 322.221 204.301,322.213 204.329,321.045 202.716 C 319.057 199.972,319.930 199.072,327.383 196.182 C 345.888 189.005,345.698 189.334,333.794 185.098 C 331.260 184.196,326.075 182.334,322.273 180.959 C 318.472 179.585,313.218 177.693,310.599 176.755 C 300.042 172.974,300.464 173.407,298.932 164.777 C 298.576 162.775,297.953 159.409,297.546 157.296 C 296.438 151.537,294.798 142.819,293.558 136.098 C 292.150 128.466,292.009 127.966,291.042 127.205 C 290.035 126.413,289.975 126.413,273.629 127.092 C 260.066 127.655,260.580 127.676,257.717 126.445 C 257.378 126.299,257.014 126.488,256.587 127.031 M233.381 130.710 C 231.884 146.996,246.717 167.259,269.585 180.170 C 271.444 181.219,274.485 183.021,276.344 184.174 C 282.745 188.143,289.884 192.104,298.618 196.530 C 311.039 202.826,311.230 201.672,296.834 207.263 C 291.816 209.212,284.578 212.039,280.749 213.545 C 272.850 216.651,272.396 216.721,270.046 215.207 C 267.895 213.822,267.279 213.850,263.457 215.515 C 258.623 217.620,258.484 217.560,254.224 211.530 C 248.385 203.266,240.999 197.596,229.617 192.641 C 223.325 189.902,219.518 187.852,218.861 186.849 C 217.971 185.492,217.502 181.548,217.228 173.118 C 217.080 168.556,216.809 163.856,216.626 162.673 C 216.443 161.490,216.078 158.587,215.814 156.221 C 215.551 153.856,215.120 151.022,214.856 149.923 C 213.599 144.680,212.754 139.872,212.939 139.017 C 213.303 137.331,213.216 135.137,212.718 133.423 C 211.943 130.759,211.806 130.811,220.819 130.394 C 229.230 130.006,229.404 129.964,231.932 127.746 C 233.668 126.222,233.774 126.438,233.381 130.710 M289.848 127.994 C 290.636 128.297,291.187 129.680,291.275 131.575 C 291.380 133.857,291.193 133.965,290.353 132.106 C 289.973 131.265,289.119 130.112,288.456 129.545 C 287.793 128.977,287.250 128.432,287.250 128.334 C 287.250 127.940,289.083 127.701,289.848 127.994 M261.988 128.918 C 263.216 129.030,264.165 129.178,264.096 129.248 C 263.827 129.517,258.300 130.521,257.910 130.372 C 256.570 129.858,257.354 128.269,258.815 128.539 C 259.332 128.635,260.759 128.805,261.988 128.918 M56.020 133.670 C 50.495 134.593,47.005 137.703,47.005 141.704 C 47.005 145.698,49.082 146.246,49.631 142.396 C 50.290 137.767,53.068 135.314,56.406 136.416 C 58.523 137.114,58.508 137.024,58.679 150.261 C 58.851 163.568,58.854 163.586,60.967 163.379 C 62.872 163.193,62.979 162.504,62.980 150.481 C 62.980 136.906,62.800 137.327,68.612 137.327 C 72.435 137.327,74.470 135.760,72.631 134.233 C 71.798 133.542,59.320 133.118,56.020 133.670 M127.606 134.231 C 126.212 135.082,126.106 135.432,126.964 136.354 C 128.431 137.928,128.418 137.784,128.408 152.438 C 128.398 165.656,128.366 166.445,127.774 168.049 C 126.765 170.782,126.741 171.035,127.472 171.267 C 129.411 171.883,132.060 168.786,132.690 165.167 C 133.242 161.998,133.145 135.990,132.577 134.891 C 131.842 133.471,129.387 133.145,127.606 134.231 M66.052 134.753 C 71.751 135.045,73.049 136.098,67.709 136.098 C 61.866 136.098,61.948 135.905,61.751 150.197 C 61.612 160.290,61.547 161.410,61.075 161.707 C 60.128 162.304,60.063 161.652,59.908 149.975 C 59.759 138.790,59.731 138.352,59.063 136.904 C 58.683 136.080,58.372 135.289,58.372 135.146 C 58.372 134.742,60.267 134.272,61.290 134.422 C 61.797 134.496,63.940 134.645,66.052 134.753 M131.314 135.352 C 131.899 135.937,132.034 162.189,131.465 164.670 C 130.110 170.584,129.743 167.671,129.685 150.538 C 129.659 142.848,129.519 137.647,129.318 136.922 C 128.819 135.127,130.090 134.128,131.314 135.352 M99.721 136.790 C 98.951 137.979,98.879 138.861,98.807 147.964 L 98.737 156.836 97.848 158.804 L 96.959 160.773 98.432 162.107 C 101.818 165.172,102.711 164.013,102.935 156.267 C 103.152 148.802,103.875 146.851,106.424 146.851 C 108.771 146.851,109.310 148.277,109.448 154.839 C 109.596 161.890,110.480 163.433,114.554 163.748 L 116.542 163.902 116.914 165.131 C 117.118 165.806,117.440 166.928,117.629 167.623 C 118.465 170.702,120.888 171.567,120.560 168.669 C 120.328 166.620,120.697 165.727,122.314 164.417 C 124.769 162.429,122.361 161.340,118.168 162.544 L 116.675 162.972 115.621 161.747 C 113.600 159.399,113.548 159.196,113.372 152.995 C 113.152 145.273,112.093 143.486,107.988 143.919 C 104.441 144.292,104.415 144.289,103.774 143.438 C 103.332 142.851,103.107 141.873,102.934 139.779 C 102.749 137.545,102.574 136.831,102.135 136.510 C 101.287 135.889,100.223 136.013,99.721 136.790 M121.639 137.852 C 119.291 139.828,118.721 144.543,120.701 145.603 C 121.668 146.120,122.156 145.326,122.385 142.863 C 122.497 141.656,122.863 139.887,123.199 138.932 C 123.936 136.835,123.934 137.020,123.219 137.020 C 122.894 137.020,122.183 137.394,121.639 137.852 M101.835 140.638 C 101.954 141.943,102.315 143.616,102.638 144.355 C 103.377 146.047,103.374 146.633,102.611 148.848 C 102.098 150.339,101.997 151.434,101.997 155.481 C 101.997 160.914,101.786 161.905,100.630 161.905 C 99.236 161.905,98.749 160.387,99.410 158.100 C 99.864 156.533,99.966 154.787,100.024 147.578 C 100.071 141.701,100.208 138.721,100.452 138.265 C 101.063 137.124,101.599 138.043,101.835 140.638 M293.195 142.320 C 293.308 143.196,293.263 143.779,293.082 143.779 C 292.916 143.779,292.779 143.537,292.777 143.241 C 292.775 142.945,292.688 142.151,292.583 141.475 C 292.456 140.655,292.495 140.348,292.701 140.553 C 292.870 140.722,293.092 141.517,293.195 142.320 M87.908 144.442 C 85.548 145.611,83.572 149.474,83.558 152.951 C 83.554 153.736,83.414 155.333,83.245 156.499 C 82.855 159.199,82.899 159.300,85.273 161.130 C 88.067 163.284,88.680 163.549,90.863 163.553 C 93.936 163.558,95.738 161.910,93.338 161.289 C 91.036 160.694,90.918 160.641,89.861 159.713 C 85.405 155.800,88.387 143.579,93.227 145.922 C 94.954 146.759,95.211 146.616,94.180 145.391 C 92.834 143.791,90.068 143.373,87.908 144.442 M141.437 144.351 C 135.668 147.045,135.030 160.125,140.530 162.940 C 142.205 163.797,144.216 163.714,146.103 162.709 C 147.955 161.723,148.134 161.722,150.184 162.676 C 151.665 163.365,152.215 163.441,155.743 163.441 C 161.064 163.441,160.776 163.825,161.013 156.420 C 161.281 148.062,162.797 145.181,165.603 147.696 C 166.889 148.848,167.112 150.093,167.120 156.165 C 167.129 162.182,167.406 163.117,169.184 163.129 C 170.498 163.138,170.813 162.107,170.824 157.766 C 170.845 148.644,172.060 145.436,174.879 147.058 C 176.666 148.087,177.022 149.330,177.104 154.837 C 177.189 160.543,177.704 162.167,179.778 163.278 C 182.309 164.633,183.558 162.850,181.970 160.149 C 181.130 158.719,181.102 158.528,180.952 153.149 C 180.804 147.821,180.768 147.567,179.964 146.200 C 178.457 143.636,175.960 143.085,173.434 144.759 L 171.954 145.739 170.616 145.220 C 166.294 143.542,166.681 143.621,164.726 144.025 C 163.629 144.251,162.046 144.327,160.786 144.212 C 157.357 143.899,157.218 144.166,157.157 151.220 C 157.094 158.472,156.031 161.115,153.774 159.636 C 152.376 158.719,152.249 158.107,152.080 151.414 C 151.885 143.696,151.839 143.588,148.849 143.921 C 146.412 144.193,145.410 144.201,143.932 143.960 C 143.035 143.814,142.362 143.919,141.437 144.351 M72.326 144.665 C 64.821 149.241,67.649 164.822,75.763 163.606 C 78.799 163.150,79.198 161.765,76.513 161.003 C 73.672 160.196,72.479 157.965,73.540 155.441 C 73.925 154.527,73.897 154.293,73.225 152.826 C 71.952 150.046,73.492 146.022,76.256 144.907 C 76.563 144.783,76.548 144.674,76.190 144.421 C 75.458 143.903,73.358 144.036,72.326 144.665 M78.132 145.362 C 78.949 147.359,79.042 148.130,78.670 149.794 C 78.191 151.932,78.439 152.211,79.630 150.878 C 81.134 149.194,80.583 146.350,78.539 145.257 C 78.095 145.019,78.002 145.043,78.132 145.362 M146.965 145.938 C 149.735 149.231,148.305 160.676,145.124 160.676 C 139.625 160.676,139.163 148.855,144.534 145.580 C 145.790 144.814,146.051 144.852,146.965 145.938 M110.734 145.970 C 112.027 146.986,112.217 147.876,112.174 152.715 C 112.139 156.763,112.245 157.899,112.932 160.783 C 113.233 162.050,112.210 161.775,111.386 160.368 C 110.842 159.439,110.734 158.587,110.586 154.071 C 110.427 149.192,110.362 148.744,109.599 147.272 C 108.532 145.212,109.036 144.634,110.734 145.970 M150.488 145.830 C 150.651 146.122,150.710 148.226,150.624 150.669 C 150.458 155.331,150.853 157.975,152.069 160.358 C 152.839 161.868,152.493 162.119,150.721 161.335 C 148.734 160.456,148.578 159.971,149.306 156.932 C 150.047 153.844,150.091 150.787,149.434 148.165 C 148.810 145.678,149.522 144.103,150.488 145.830 M161.077 145.863 C 161.536 146.370,161.505 146.605,160.668 149.012 C 159.811 151.472,159.762 151.881,159.758 156.568 C 159.754 161.971,159.638 162.348,158.037 162.157 C 156.591 161.985,156.446 161.250,157.466 159.239 C 158.370 157.454,158.372 157.438,158.372 151.892 C 158.372 145.947,158.518 145.315,159.898 145.315 C 160.273 145.315,160.804 145.562,161.077 145.863 M168.666 145.930 C 170.485 146.858,170.627 147.352,169.900 150.199 C 169.463 151.912,169.264 153.764,169.230 156.426 L 169.181 160.215 168.957 156.068 C 168.702 151.350,168.359 149.592,167.275 147.453 C 166.085 145.105,166.391 144.770,168.666 145.930 M178.113 146.006 C 179.234 147.203,179.504 148.365,179.413 151.613 C 179.248 157.532,179.287 157.973,180.132 159.748 C 180.928 161.420,180.873 162.091,179.970 161.744 C 179.077 161.401,178.802 160.073,178.802 156.095 C 178.802 151.271,178.452 149.290,177.261 147.368 C 175.956 145.262,176.541 144.327,178.113 146.006 M140.395 148.157 C 140.392 148.368,140.189 149.370,139.945 150.384 C 139.244 153.287,139.353 156.063,140.273 158.728 C 141.184 161.370,141.133 161.609,139.878 160.553 C 137.911 158.898,137.542 151.217,139.300 148.534 C 139.833 147.721,140.402 147.525,140.395 148.157 M71.395 150.022 C 71.273 151.064,71.368 152.161,71.670 153.178 C 71.989 154.251,72.058 155.145,71.892 156.052 C 71.601 157.644,71.993 159.251,72.996 160.580 C 73.853 161.716,73.526 162.131,72.282 161.488 C 69.703 160.154,68.669 156.532,69.561 151.953 C 70.299 148.166,71.799 146.586,71.395 150.022 M86.654 149.652 C 85.931 152.790,86.515 156.920,88.094 159.833 C 89.002 161.507,88.899 161.831,87.663 161.190 C 85.918 160.285,84.485 158.584,84.485 157.417 C 84.485 154.765,85.630 149.444,86.413 148.456 C 86.910 147.829,86.987 148.209,86.654 149.652 M295.177 153.610 L 295.177 154.378 294.931 153.610 C 294.796 153.187,294.685 152.496,294.685 152.074 L 294.685 151.306 294.931 152.074 C 295.066 152.496,295.177 153.187,295.177 153.610 M297.520 165.438 C 297.993 168.206,299.275 171.763,300.166 172.778 C 301.502 174.300,302.435 174.673,326.114 183.142 C 330.845 184.835,335.730 186.585,336.970 187.031 C 338.209 187.478,339.573 188.168,340.001 188.564 L 340.779 189.285 340.111 189.996 C 339.688 190.445,336.153 191.988,330.500 194.190 C 320.662 198.021,319.955 198.389,319.021 200.164 C 318.177 201.770,316.335 201.881,314.273 200.452 C 311.828 198.758,311.855 197.284,314.358 195.841 C 317.551 194.000,317.042 193.371,309.992 190.447 C 305.338 188.516,305.344 188.142,310.061 185.703 C 312.853 184.260,312.733 183.714,309.534 183.296 C 308.695 183.186,307.505 182.764,306.890 182.357 C 306.276 181.950,305.079 181.411,304.231 181.159 C 303.384 180.908,302.230 180.464,301.668 180.173 C 300.485 179.561,297.017 179.702,292.663 180.538 C 287.485 181.533,284.464 180.674,281.410 177.341 C 279.363 175.108,278.920 174.098,279.661 173.357 C 280.151 172.866,287.405 171.373,292.009 170.815 C 295.863 170.347,296.756 169.369,296.779 165.591 C 296.793 163.209,297.127 163.140,297.520 165.438 " stroke="none" fill="#6c8494" fill-rule="evenodd"></path><path id="path5" d="M59.072 133.252 C 59.880 133.316,61.124 133.315,61.837 133.251 C 62.550 133.186,61.889 133.134,60.369 133.135 C 58.848 133.136,58.265 133.189,59.072 133.252 M54.300 133.667 C 49.819 134.723,46.650 138.126,46.742 141.782 L 46.781 143.318 46.997 141.433 C 47.479 137.213,50.561 134.592,56.149 133.651 C 57.396 133.441,57.450 133.405,56.528 133.400 C 55.937 133.397,54.934 133.517,54.300 133.667 M65.515 133.559 C 66.317 133.622,67.631 133.622,68.433 133.559 C 69.236 133.496,68.579 133.444,66.974 133.444 C 65.369 133.444,64.712 133.496,65.515 133.559 M129.647 133.542 C 131.613 133.744,132.085 133.949,132.545 134.797 C 132.796 135.259,133.007 135.458,133.014 135.239 C 133.044 134.261,131.558 133.332,130.045 133.382 C 128.860 133.422,128.782 133.453,129.647 133.542 M71.736 133.863 C 73.317 134.252,73.605 135.671,72.309 136.690 C 71.864 137.041,71.632 137.327,71.794 137.327 C 72.311 137.327,73.425 135.929,73.425 135.281 C 73.425 134.502,72.494 133.629,71.712 133.676 C 71.154 133.710,71.156 133.720,71.736 133.863 M127.036 134.125 C 126.529 134.389,125.907 134.786,125.654 135.006 C 125.400 135.227,124.570 135.683,123.810 136.019 C 119.873 137.757,117.826 143.024,120.132 145.479 C 121.559 146.997,122.613 146.159,122.537 143.569 L 122.494 142.089 122.297 143.719 C 121.883 147.134,119.496 146.048,119.515 142.453 C 119.528 140.068,121.606 137.020,123.219 137.020 C 123.934 137.020,123.936 136.834,123.195 138.943 C 122.857 139.905,122.590 141.006,122.601 141.390 C 122.612 141.775,122.823 141.337,123.071 140.417 C 124.300 135.842,128.007 135.356,128.160 139.750 C 128.201 140.946,128.229 141.005,128.336 140.126 C 128.517 138.646,128.236 137.799,127.161 136.574 C 126.125 135.394,126.181 135.101,127.606 134.231 C 128.764 133.525,128.338 133.446,127.036 134.125 M99.561 136.601 C 99.211 137.046,98.930 137.633,98.937 137.906 C 98.943 138.179,99.145 137.951,99.385 137.399 C 99.918 136.171,100.565 135.891,101.812 136.346 C 102.679 136.663,102.711 136.654,102.169 136.243 C 101.269 135.561,100.271 135.698,99.561 136.601 M53.775 136.459 C 51.959 136.980,49.534 139.344,50.166 139.977 C 50.241 140.051,50.477 139.687,50.692 139.169 C 51.755 136.603,57.198 135.696,57.918 137.964 C 58.030 138.315,58.188 138.535,58.271 138.452 C 58.614 138.109,57.635 136.938,56.667 136.533 C 55.487 136.040,55.255 136.034,53.775 136.459 M133.167 149.462 C 133.167 156.897,133.207 159.895,133.256 156.124 C 133.305 152.352,133.305 146.269,133.256 142.606 C 133.207 138.942,133.167 142.028,133.167 149.462 M66.907 137.554 C 67.800 137.616,69.183 137.616,69.980 137.553 C 70.777 137.490,70.046 137.439,68.356 137.439 C 66.667 137.440,66.015 137.492,66.907 137.554 M63.555 138.449 C 63.216 138.858,63.131 141.092,63.119 149.893 L 63.103 160.829 63.272 149.893 C 63.405 141.268,63.530 138.849,63.863 138.449 C 64.094 138.170,64.215 137.942,64.131 137.942 C 64.046 137.942,63.787 138.170,63.555 138.449 M103.017 139.785 C 103.017 140.883,103.073 141.333,103.141 140.783 C 103.209 140.234,103.209 139.336,103.141 138.786 C 103.073 138.237,103.017 138.687,103.017 139.785 M58.511 149.923 C 58.511 156.091,58.552 158.614,58.602 155.530 C 58.652 152.446,58.652 147.400,58.602 144.316 C 58.552 141.233,58.511 143.756,58.511 149.923 M98.541 144.163 C 98.447 146.571,98.465 150.269,98.579 152.381 C 98.749 155.499,98.793 154.676,98.814 148.003 C 98.828 143.483,98.811 139.785,98.775 139.785 C 98.740 139.785,98.634 141.755,98.541 144.163 M49.452 143.472 C 49.271 145.216,48.258 145.584,47.497 144.182 C 46.943 143.158,46.850 143.410,47.364 144.540 C 48.242 146.466,49.857 145.811,49.701 143.591 L 49.595 142.089 49.452 143.472 M103.238 142.432 C 103.201 143.455,104.545 144.459,105.655 144.237 C 106.262 144.116,107.450 143.913,108.295 143.787 C 109.822 143.559,109.824 143.558,108.600 143.515 C 107.923 143.491,106.889 143.609,106.303 143.777 C 104.939 144.168,104.256 143.942,103.698 142.913 C 103.452 142.460,103.245 142.243,103.238 142.432 M74.040 143.785 C 72.316 144.085,69.124 146.718,69.124 147.840 C 69.124 147.998,69.580 147.531,70.136 146.802 C 71.543 144.956,72.936 144.085,74.469 144.091 C 75.825 144.096,76.970 144.619,76.256 144.907 C 75.037 145.399,72.765 148.136,73.208 148.579 C 73.282 148.653,73.523 148.278,73.744 147.746 C 74.161 146.739,75.646 145.625,76.575 145.623 C 78.265 145.620,78.898 148.573,77.727 150.998 C 76.678 153.169,77.069 153.554,78.994 152.246 C 83.550 149.150,79.819 142.777,74.040 143.785 M88.174 143.961 C 87.002 144.469,85.829 145.458,85.356 146.337 C 85.189 146.645,85.609 146.342,86.288 145.663 C 88.580 143.370,92.362 143.231,94.165 145.373 C 95.210 146.616,94.961 146.762,93.227 145.922 C 90.559 144.631,88.304 146.991,88.009 151.382 L 87.891 153.149 88.155 151.505 C 88.971 146.436,91.117 144.706,93.699 147.038 C 95.065 148.272,95.853 148.252,95.853 146.984 C 95.853 144.513,91.161 142.666,88.174 143.961 M141.559 144.004 C 139.922 144.692,137.208 147.756,137.753 148.301 C 137.857 148.405,137.942 148.341,137.942 148.159 C 137.942 146.005,142.209 143.454,144.789 144.066 C 145.969 144.346,146.618 144.358,147.255 144.112 C 151.218 142.584,151.883 143.589,152.080 151.414 C 152.249 158.107,152.376 158.719,153.774 159.636 C 155.152 160.539,157.047 158.465,156.956 156.154 C 156.931 155.524,156.853 155.653,156.658 156.645 C 156.276 158.586,155.623 159.447,154.531 159.447 C 152.786 159.447,152.546 158.568,152.444 151.781 C 152.353 145.726,152.133 144.328,151.201 143.892 C 150.266 143.455,142.656 143.544,141.559 144.004 M164.209 143.814 C 163.702 143.974,162.365 144.018,161.239 143.913 C 158.838 143.689,158.039 143.881,157.562 144.798 L 157.213 145.469 157.959 144.784 C 158.624 144.173,159.003 144.104,161.457 144.144 C 162.970 144.169,164.900 144.044,165.745 143.866 C 167.103 143.581,167.157 143.543,166.206 143.534 C 165.614 143.529,164.716 143.655,164.209 143.814 M173.514 144.240 C 171.843 145.129,170.849 145.200,169.541 144.524 C 169.027 144.258,168.546 144.101,168.472 144.175 C 168.302 144.345,171.249 145.624,171.793 145.617 C 172.015 145.613,172.805 145.199,173.549 144.695 C 175.931 143.080,178.482 143.679,179.964 146.200 C 180.768 147.567,180.804 147.821,180.952 153.149 C 181.102 158.528,181.130 158.719,181.970 160.149 C 183.056 161.997,182.991 163.154,181.775 163.579 C 180.487 164.030,178.836 163.045,177.957 161.302 C 177.577 160.548,177.266 160.147,177.266 160.412 C 177.266 162.095,180.258 164.422,181.740 163.892 C 183.387 163.303,183.541 162.537,182.421 160.496 L 181.425 158.679 181.265 153.124 C 181.021 144.623,178.412 141.632,173.514 144.240 M110.832 144.392 C 111.383 144.727,112.108 145.453,112.444 146.003 C 112.780 146.554,113.055 146.816,113.056 146.584 C 113.056 146.353,112.520 145.628,111.864 144.972 C 111.208 144.316,110.482 143.779,110.251 143.780 C 110.020 143.781,110.282 144.056,110.832 144.392 M79.695 146.205 C 80.754 147.375,80.722 149.656,79.630 150.878 C 78.439 152.211,78.191 151.932,78.670 149.794 C 79.042 148.130,78.949 147.359,78.132 145.362 C 77.900 144.795,78.914 145.342,79.695 146.205 M144.854 145.365 C 143.407 146.163,141.282 148.758,141.718 149.194 C 141.792 149.268,142.028 148.906,142.241 148.391 C 143.223 146.020,145.609 145.054,146.903 146.502 C 147.992 147.721,148.058 147.237,146.977 145.953 C 146.118 144.932,145.800 144.844,144.854 145.365 M172.780 146.779 C 172.425 147.016,171.736 148.193,171.736 148.562 C 171.736 148.680,172.022 148.413,172.373 147.968 C 173.415 146.642,174.917 146.929,176.128 148.686 C 176.416 149.104,176.651 149.307,176.651 149.138 C 176.651 147.796,173.831 146.077,172.780 146.779 M105.158 147.051 C 104.654 147.255,103.415 149.293,103.652 149.530 C 103.755 149.633,103.840 149.568,103.840 149.384 C 103.840 147.624,106.697 146.600,108.122 147.849 L 108.909 148.541 108.165 147.696 C 107.450 146.885,106.217 146.621,105.158 147.051 M162.803 147.677 L 162.058 148.503 162.945 147.830 C 164.359 146.758,165.916 147.451,166.482 149.405 C 166.717 150.219,166.770 150.262,166.793 149.662 C 166.868 147.696,164.051 146.294,162.803 147.677 M84.107 148.618 C 83.641 149.661,83.434 150.821,83.379 152.688 L 83.302 155.300 83.548 152.842 C 83.684 151.490,84.075 149.658,84.418 148.771 C 85.195 146.760,84.983 146.655,84.107 148.618 M113.488 153.149 C 113.489 155.853,113.536 156.917,113.593 155.515 C 113.650 154.113,113.650 151.901,113.592 150.600 C 113.535 149.298,113.488 150.445,113.488 153.149 M108.962 149.770 C 109.194 151.288,109.372 151.547,109.365 150.358 C 109.363 149.866,109.229 149.255,109.067 149.002 C 108.867 148.688,108.833 148.933,108.962 149.770 M136.743 151.146 C 136.367 152.897,136.343 156.423,136.698 157.604 C 136.825 158.026,136.862 157.191,136.781 155.748 C 136.700 154.305,136.793 152.384,136.987 151.479 C 137.181 150.574,137.281 149.775,137.210 149.704 C 137.138 149.632,136.928 150.281,136.743 151.146 M148.191 152.381 C 148.191 153.986,148.242 154.643,148.306 153.840 C 148.369 153.038,148.369 151.724,148.306 150.922 C 148.242 150.119,148.191 150.776,148.191 152.381 M157.100 152.381 C 157.100 153.986,157.152 154.643,157.215 153.840 C 157.278 153.038,157.278 151.724,157.215 150.922 C 157.152 150.119,157.100 150.776,157.100 152.381 M68.090 151.180 C 67.983 151.714,67.912 152.513,67.931 152.957 C 67.951 153.401,68.091 153.016,68.243 152.104 C 68.538 150.324,68.413 149.565,68.090 151.180 M171.193 151.152 C 171.193 151.743,171.256 151.985,171.333 151.690 C 171.410 151.394,171.410 150.910,171.333 150.614 C 171.256 150.319,171.193 150.561,171.193 151.152 M72.528 150.845 C 72.518 151.098,72.837 152.009,73.238 152.868 C 73.901 154.292,73.928 154.521,73.542 155.438 C 72.903 156.958,73.034 157.285,73.733 155.914 C 74.467 154.474,74.497 153.977,73.890 153.306 C 73.638 153.028,73.233 152.257,72.990 151.593 C 72.746 150.928,72.539 150.591,72.528 150.845 M166.951 156.267 C 166.976 162.782,167.164 163.441,168.996 163.441 C 170.776 163.441,171.129 162.396,171.060 157.332 L 170.999 152.842 170.830 157.481 C 170.630 162.970,169.767 164.501,167.917 162.651 C 167.652 162.385,167.408 162.143,167.375 162.113 C 167.342 162.083,167.228 159.432,167.122 156.221 L 166.928 150.384 166.951 156.267 M103.044 156.375 C 103.044 159.163,103.090 160.303,103.147 158.909 C 103.204 157.515,103.204 155.234,103.147 153.840 C 103.090 152.446,103.044 153.587,103.044 156.375 M177.042 152.995 C 177.042 153.756,177.102 154.067,177.175 153.687 C 177.249 153.306,177.249 152.684,177.175 152.304 C 177.102 151.924,177.042 152.235,177.042 152.995 M161.051 157.025 C 160.958 163.594,161.104 163.418,155.661 163.507 L 151.613 163.573 155.300 163.673 C 161.356 163.837,161.351 163.842,161.213 156.912 L 161.119 152.227 161.051 157.025 M140.794 154.378 C 140.797 155.223,140.856 155.532,140.927 155.065 C 140.998 154.598,140.996 153.907,140.923 153.529 C 140.850 153.151,140.792 153.533,140.794 154.378 M87.936 155.453 C 87.936 156.045,87.999 156.286,88.077 155.991 C 88.154 155.695,88.154 155.211,88.077 154.916 C 87.999 154.620,87.936 154.862,87.936 155.453 M67.923 156.375 C 67.898 157.167,68.480 159.587,68.651 159.399 C 68.704 159.341,68.567 158.464,68.347 157.450 C 68.127 156.436,67.936 155.952,67.923 156.375 M82.788 157.671 C 82.599 159.299,82.644 159.629,83.093 159.899 C 83.383 160.073,84.587 160.941,85.768 161.828 C 86.950 162.715,88.078 163.440,88.275 163.440 C 88.472 163.439,88.157 163.149,87.576 162.794 C 86.462 162.115,83.574 159.816,83.177 159.293 C 83.049 159.124,83.031 158.260,83.136 157.373 C 83.241 156.486,83.256 155.760,83.168 155.760 C 83.081 155.760,82.910 156.620,82.788 157.671 M141.019 156.861 C 141.021 157.185,141.164 157.657,141.335 157.911 C 141.563 158.247,141.591 158.123,141.441 157.450 C 141.188 156.320,141.012 156.075,141.019 156.861 M73.130 158.018 C 73.112 158.906,75.002 160.574,76.513 161.003 C 79.242 161.777,78.963 162.823,75.812 163.637 C 74.213 164.050,74.210 164.053,75.557 163.889 C 79.488 163.410,80.807 161.309,77.457 160.862 C 75.610 160.616,74.113 159.683,73.574 158.442 C 73.297 157.805,73.138 157.653,73.130 158.018 M88.480 157.823 C 88.477 159.037,90.678 160.614,93.318 161.288 C 95.364 161.810,94.389 163.176,91.681 163.582 C 90.903 163.699,90.339 163.866,90.427 163.955 C 90.805 164.332,93.875 163.355,95.120 162.461 C 96.597 161.400,96.934 161.448,99.232 163.044 C 99.654 163.337,99.310 162.941,98.466 162.163 L 96.933 160.749 97.468 159.627 C 98.235 158.019,98.132 157.948,97.098 159.375 C 95.308 161.846,90.848 161.332,89.092 158.451 C 88.756 157.901,88.481 157.618,88.480 157.823 M147.465 157.990 C 147.465 160.390,143.899 161.085,142.145 159.027 L 141.587 158.372 141.924 159.060 C 142.740 160.727,145.753 161.234,146.816 159.883 C 147.527 158.979,147.915 157.951,147.647 157.683 C 147.547 157.583,147.465 157.721,147.465 157.990 M177.036 158.679 C 177.039 159.355,177.102 159.595,177.176 159.213 C 177.249 158.831,177.247 158.278,177.170 157.984 C 177.093 157.690,177.033 158.003,177.036 158.679 M113.683 158.469 C 113.666 159.052,114.231 160.030,115.446 161.521 C 116.593 162.928,117.097 163.052,118.894 162.373 C 119.958 161.971,119.951 161.968,118.267 162.126 C 116.401 162.300,115.123 161.343,114.107 159.010 C 113.881 158.490,113.690 158.246,113.683 158.469 M109.401 159.073 C 109.368 159.815,110.136 161.905,110.441 161.905 C 110.540 161.905,110.477 161.637,110.302 161.309 C 110.126 160.981,109.859 160.186,109.707 159.542 C 109.531 158.793,109.421 158.624,109.401 159.073 M128.228 162.980 C 128.228 165.008,128.278 165.797,128.338 164.735 C 128.399 163.672,128.398 162.013,128.337 161.048 C 128.277 160.083,128.227 160.952,128.228 162.980 M137.327 159.648 C 137.327 160.215,139.127 162.476,139.852 162.819 C 140.513 163.133,140.511 163.121,139.809 162.609 C 139.400 162.311,138.674 161.450,138.196 160.697 C 137.718 159.943,137.327 159.471,137.327 159.648 M68.817 159.954 C 68.817 160.138,69.336 160.834,69.969 161.499 C 70.603 162.165,70.831 162.355,70.477 161.923 C 70.123 161.490,69.605 160.795,69.325 160.377 C 69.046 159.959,68.817 159.769,68.817 159.954 M62.366 162.317 C 61.804 163.500,60.504 163.776,59.497 162.926 L 58.833 162.366 59.431 163.072 C 60.461 164.286,63.456 163.078,62.939 161.657 C 62.877 161.486,62.619 161.783,62.366 162.317 M121.198 161.877 C 123.449 162.249,123.854 163.170,122.314 164.417 C 120.697 165.727,120.328 166.620,120.560 168.669 C 120.858 171.307,119.009 171.018,117.798 168.237 C 117.569 167.711,117.377 167.461,117.370 167.680 C 117.328 169.072,119.358 171.121,120.779 171.121 C 121.783 171.121,121.917 170.535,121.198 169.278 C 120.317 167.736,120.600 166.580,122.273 164.889 C 124.396 162.744,124.004 161.549,121.207 161.636 L 119.969 161.674 121.198 161.877 M102.213 162.703 C 101.881 163.146,101.329 163.451,100.831 163.465 C 100.374 163.478,100.179 163.561,100.397 163.649 C 101.075 163.921,102.270 163.464,102.627 162.796 C 103.113 161.888,102.864 161.832,102.213 162.703 M146.171 162.673 C 145.378 163.095,144.411 163.457,144.023 163.476 C 143.457 163.505,143.430 163.541,143.886 163.658 C 144.198 163.739,145.292 163.429,146.317 162.969 L 148.180 162.132 149.721 162.783 C 150.568 163.141,151.310 163.385,151.370 163.326 C 151.519 163.176,148.523 161.905,148.020 161.905 C 147.797 161.905,146.965 162.250,146.171 162.673 M111.446 163.057 C 111.844 163.437,112.335 163.744,112.536 163.739 C 112.738 163.734,112.627 163.576,112.289 163.389 C 111.951 163.201,111.460 162.894,111.198 162.707 C 110.937 162.519,111.048 162.677,111.446 163.057 M141.014 163.427 C 141.267 163.598,141.740 163.741,142.063 163.743 C 142.849 163.750,142.604 163.574,141.475 163.321 C 140.802 163.171,140.677 163.199,141.014 163.427 M114.329 163.973 C 115.927 164.100,116.526 164.597,117.023 166.206 C 117.321 167.168,117.342 167.185,117.226 166.359 C 116.896 164.025,116.615 163.743,114.677 163.803 C 112.982 163.856,112.966 163.864,114.329 163.973 M127.828 167.144 C 127.814 167.407,127.444 168.342,127.005 169.224 C 126.066 171.109,126.190 171.736,127.502 171.736 C 129.217 171.736,130.880 170.497,131.915 168.448 C 132.758 166.779,132.464 166.913,131.413 168.677 C 129.283 172.253,125.945 172.394,127.517 168.842 C 127.866 168.052,128.085 167.239,128.002 167.036 C 127.909 166.808,127.843 166.850,127.828 167.144 M300.461 171.405 C 300.461 172.830,302.349 173.807,311.214 176.975 C 313.495 177.790,318.472 179.582,322.273 180.957 C 326.075 182.333,331.260 184.196,333.794 185.098 C 340.987 187.658,341.935 188.140,341.935 189.241 C 341.935 190.494,341.439 190.731,327.383 196.182 C 319.930 199.072,319.057 199.972,321.045 202.716 C 322.210 204.325,322.216 204.300,320.661 204.305 C 316.925 204.314,311.202 200.942,310.701 198.435 L 310.511 197.488 309.889 198.470 C 309.321 199.367,309.162 199.439,308.053 199.290 C 305.273 198.917,285.221 188.375,274.436 181.616 C 269.947 178.804,265.791 176.484,266.513 177.195 C 267.253 177.923,280.414 185.890,286.790 189.469 C 292.249 192.533,303.594 198.237,307.066 199.663 C 311.475 201.474,312.027 202.305,309.447 203.247 C 307.932 203.801,286.966 211.909,279.383 214.874 C 273.229 217.280,272.460 217.460,271.207 216.780 C 266.851 214.414,267.491 214.450,263.197 216.329 C 258.612 218.336,258.191 218.146,253.874 212.123 C 247.077 202.641,241.361 198.454,226.421 192.012 C 222.450 190.299,219.070 188.769,218.909 188.612 C 218.455 188.166,218.009 188.275,218.393 188.738 C 218.742 189.158,222.233 190.796,229.954 194.163 C 240.989 198.974,247.732 204.356,254.312 213.607 C 258.029 218.831,258.510 219.004,263.350 216.862 C 266.971 215.259,267.932 215.215,269.808 216.562 C 272.282 218.339,270.161 218.973,297.542 208.267 C 309.280 203.678,310.424 203.418,314.311 204.461 C 315.395 204.751,316.905 205.119,317.665 205.278 C 318.425 205.436,319.946 205.827,321.045 206.147 C 327.220 207.942,328.906 206.902,324.424 204.062 C 318.714 200.443,319.104 199.930,331.160 195.216 C 342.549 190.762,342.857 190.600,342.857 189.077 C 342.857 187.864,343.039 187.939,321.505 180.203 C 317.450 178.746,312.680 177.021,310.906 176.370 C 309.132 175.719,306.580 174.790,305.234 174.306 C 303.548 173.699,302.426 173.068,301.624 172.273 C 300.984 171.640,300.461 171.249,300.461 171.405 M278.947 176.498 C 280.775 179.088,283.330 181.078,286.068 182.044 C 287.906 182.693,287.462 182.283,285.229 181.271 C 283.849 180.645,282.463 179.645,280.861 178.119 C 279.570 176.889,278.709 176.160,278.947 176.498 M293.359 187.030 C 293.537 187.362,293.963 187.708,294.307 187.798 C 295.130 188.013,295.101 187.953,293.983 187.126 C 293.123 186.490,293.066 186.482,293.359 187.030 M298.310 190.370 C 298.310 191.031,299.140 191.707,300.154 191.872 L 301.229 192.046 300.307 191.530 C 299.800 191.246,299.144 190.802,298.848 190.544 C 298.552 190.285,298.310 190.207,298.310 190.370 " stroke="none" fill="#848494" fill-rule="evenodd"></path><path id="path6" d="M265.197 105.967 C 259.738 110.282,253.678 121.433,252.980 128.448 C 252.694 131.315,253.354 140.441,254.055 143.318 C 256.788 154.535,262.681 163.395,277.727 178.906 C 282.602 183.932,281.921 183.828,272.767 178.146 C 257.786 168.848,245.254 156.562,240.421 146.436 C 235.612 136.360,236.091 129.346,242.386 117.665 C 247.110 108.901,238.608 112.478,230.993 122.459 C 228.275 126.021,228.396 125.974,221.198 126.286 C 207.382 126.886,207.447 126.846,208.471 134.000 L 208.676 135.434 207.487 135.765 C 206.833 135.946,205.607 136.096,204.762 136.098 C 197.911 136.114,196.530 138.121,199.555 143.670 C 201.751 147.700,201.547 148.116,197.113 148.657 C 190.684 149.441,190.716 151.063,197.313 158.874 C 202.687 165.236,206.682 171.698,212.037 182.688 C 215.911 190.641,215.757 190.472,221.112 192.581 C 238.778 199.539,245.597 204.311,252.768 214.735 C 256.968 220.839,258.128 221.279,263.643 218.854 C 266.520 217.589,267.310 217.573,269.278 218.740 C 271.147 219.849,273.224 219.957,275.458 219.061 C 276.283 218.730,278.618 217.818,280.645 217.035 C 282.673 216.251,286.613 214.712,289.401 213.615 C 303.963 207.882,308.622 206.144,309.429 206.144 C 309.828 206.144,312.501 206.904,315.369 207.833 C 318.237 208.762,320.722 209.521,320.891 209.521 C 321.060 209.520,322.442 209.856,323.963 210.267 C 325.484 210.678,328.318 211.320,330.261 211.693 C 332.204 212.066,335.428 212.837,337.425 213.405 C 341.080 214.446,343.273 214.702,343.627 214.129 C 344.398 212.881,341.582 210.882,328.571 203.441 C 323.113 200.319,322.845 200.635,335.025 195.855 C 344.906 191.977,346.237 191.165,346.237 189.011 C 346.237 186.952,345.807 186.756,324.885 179.260 C 322.350 178.352,317.373 176.554,313.825 175.265 C 310.276 173.976,306.572 172.639,305.592 172.295 C 302.926 171.359,302.697 170.730,300.604 158.565 C 300.186 156.136,299.647 153.371,299.407 152.420 C 299.166 151.469,298.811 149.585,298.617 148.233 C 298.423 146.882,297.943 144.324,297.549 142.550 C 297.156 140.776,296.674 138.182,296.480 136.787 C 295.903 132.655,294.424 126.559,293.788 125.692 C 292.287 123.642,287.376 123.404,267.640 124.422 C 261.220 124.753,260.827 124.660,260.835 122.819 C 260.843 120.811,262.371 116.400,264.922 111.015 C 268.218 104.060,268.245 103.558,265.197 105.967 M240.119 117.163 C 240.207 117.393,239.582 119.311,238.730 121.425 C 231.523 139.298,238.798 154.773,262.980 173.010 C 273.541 180.974,297.081 194.332,297.081 192.361 C 297.081 191.771,295.695 190.395,294.056 189.359 C 293.101 188.755,291.905 187.887,291.398 187.429 C 290.184 186.334,285.638 183.131,283.791 182.070 C 281.575 180.797,277.261 176.780,275.335 174.194 C 274.390 172.926,272.804 171.009,271.809 169.934 C 263.324 160.758,258.322 152.470,256.119 143.932 C 254.598 138.041,253.959 129.409,254.823 126.417 C 255.737 123.249,257.163 120.152,258.017 119.478 L 258.833 118.835 258.989 121.812 C 259.240 126.606,257.473 126.321,280.736 125.320 C 293.381 124.776,292.720 124.383,294.461 133.487 C 296.194 142.546,297.589 149.915,298.620 155.453 C 300.670 166.466,301.486 170.389,301.893 171.195 C 302.617 172.632,301.657 172.231,321.198 179.263 C 325.253 180.722,329.816 182.377,331.336 182.940 C 332.857 183.502,335.760 184.542,337.788 185.250 C 346.628 188.338,346.631 190.000,337.803 193.425 C 319.270 200.616,319.872 199.978,327.343 204.511 C 335.653 209.554,336.253 210.786,329.800 209.557 C 322.313 208.131,321.259 207.878,314.317 205.849 C 309.342 204.395,309.818 204.307,298.157 208.851 C 296.467 209.509,290.384 211.884,284.639 214.128 C 272.471 218.880,272.076 218.965,269.531 217.394 C 267.399 216.078,267.076 216.058,264.670 217.082 C 257.997 219.923,257.730 219.833,253.154 213.185 C 247.000 204.246,240.190 199.270,225.653 193.088 C 216.856 189.347,216.768 189.282,215.020 185.286 C 209.763 173.269,204.948 165.154,198.501 157.450 C 194.003 152.074,193.923 150.857,198.039 150.385 C 203.540 149.754,203.944 149.040,201.561 144.166 C 198.853 138.629,199.125 138.157,205.400 137.508 C 209.633 137.070,210.699 136.537,210.344 135.037 C 208.828 128.631,209.132 128.300,216.835 127.963 C 229.122 127.425,228.825 127.508,231.630 123.834 C 235.695 118.508,239.490 115.525,240.119 117.163 M54.603 131.340 C 47.974 132.600,44.321 136.653,44.613 142.425 C 44.863 147.362,48.486 150.603,51.173 148.294 C 52.053 147.538,52.077 147.437,52.228 143.932 C 52.401 139.901,52.800 139.171,54.823 139.171 C 56.478 139.171,56.528 139.540,56.528 151.637 C 56.528 163.461,56.589 163.948,58.212 165.225 C 60.864 167.311,64.215 165.839,65.285 162.118 C 65.894 160.001,65.925 160.004,67.808 162.366 C 71.096 166.489,76.752 167.339,81.135 164.369 C 82.850 163.207,83.790 163.208,85.627 164.373 C 88.616 166.269,90.954 166.578,94.592 165.557 L 96.903 164.909 98.819 165.585 C 103.546 167.254,105.049 165.329,105.105 157.537 C 105.146 151.979,105.288 150.909,106.053 150.428 C 106.939 149.870,107.061 150.418,107.228 155.708 C 107.446 162.623,108.434 164.627,112.333 166.067 C 114.364 166.816,114.726 167.183,115.482 169.257 C 118.784 178.312,133.279 175.914,134.863 166.052 C 135.533 161.881,135.503 161.910,137.406 163.629 C 139.990 165.964,143.401 166.630,146.812 165.466 C 148.354 164.940,148.576 164.934,150.191 165.387 C 151.952 165.881,158.633 166.276,160.189 165.979 C 161.440 165.740,162.968 164.055,163.429 162.407 C 163.839 160.944,164.363 160.497,164.363 161.610 C 164.363 165.126,169.433 167.342,171.879 164.895 C 172.901 163.873,173.574 161.808,173.584 159.662 C 173.591 158.156,174.073 157.634,174.307 158.879 C 175.348 164.413,180.471 167.898,184.056 165.511 C 186.421 163.935,186.594 161.925,184.579 159.420 L 183.564 158.157 183.395 152.734 C 183.097 143.190,179.674 139.675,172.826 141.882 C 171.043 142.457,170.949 142.457,169.034 141.910 C 166.047 141.055,158.324 141.377,156.474 142.432 C 154.846 143.361,154.826 143.359,153.133 142.166 C 149.646 139.707,141.393 140.720,137.876 144.037 C 135.251 146.513,135.362 146.685,135.169 139.837 C 134.952 132.168,134.402 131.183,130.332 131.183 C 121.752 131.183,114.448 139.900,117.720 146.234 C 119.073 148.853,122.286 149.893,124.251 148.348 C 125.630 147.263,125.795 147.803,125.902 153.724 C 126.015 159.939,125.987 160.009,123.584 159.493 C 122.772 159.319,121.073 159.253,119.809 159.346 C 116.235 159.609,115.986 159.224,115.939 153.341 C 115.868 144.639,113.648 141.332,107.865 141.316 C 105.503 141.310,105.338 141.143,105.080 138.515 C 104.725 134.895,103.722 133.641,101.184 133.641 C 98.381 133.641,97.103 135.179,96.768 138.958 C 96.492 142.068,96.375 142.168,93.844 141.483 C 90.373 140.544,86.886 141.404,84.658 143.750 C 83.473 144.999,83.132 144.956,81.401 143.336 C 76.911 139.136,70.735 140.692,67.142 146.928 C 65.731 149.377,65.438 148.868,65.438 143.969 C 65.438 139.796,65.446 139.785,68.516 139.785 C 74.031 139.785,77.234 137.041,75.781 133.561 C 75.089 131.907,74.413 131.687,69.278 131.452 C 66.743 131.335,62.942 131.161,60.829 131.064 C 58.074 130.937,56.315 131.015,54.603 131.340 M281.106 131.671 C 280.515 131.734,276.109 131.923,271.315 132.091 C 258.488 132.540,258.456 132.573,262.887 140.787 C 268.068 150.393,273.299 155.934,283.601 162.730 C 290.637 167.373,292.609 168.143,293.596 166.637 C 294.175 165.753,294.317 166.769,291.695 152.995 C 290.501 146.721,288.590 136.471,288.293 134.750 C 287.834 132.084,285.731 131.183,281.106 131.671 M68.318 132.679 C 73.144 132.897,73.202 132.908,73.925 133.748 C 76.052 136.221,73.685 138.272,68.446 138.494 C 63.657 138.698,64.057 137.564,64.047 150.954 C 64.038 162.718,64.012 162.949,62.560 164.125 C 61.803 164.738,59.967 164.823,59.293 164.276 C 57.897 163.142,57.919 163.329,57.757 150.830 C 57.584 137.415,57.624 137.634,55.329 137.635 C 52.350 137.636,51.029 139.357,50.918 143.381 C 50.833 146.479,50.505 147.158,49.094 147.158 C 47.071 147.158,45.565 144.286,45.861 140.992 C 46.385 135.157,52.273 131.816,61.137 132.326 C 62.404 132.399,65.635 132.558,68.318 132.679 M132.969 133.444 L 133.794 134.268 133.985 142.172 C 134.235 152.544,134.582 153.526,136.401 149.013 C 138.521 143.754,140.416 142.567,146.706 142.557 C 153.241 142.546,153.375 142.718,153.552 151.306 C 153.668 156.935,153.834 157.911,154.673 157.911 C 155.469 157.911,155.761 156.297,155.774 151.829 C 155.798 143.802,156.238 143.022,160.760 142.992 C 162.319 142.981,164.217 142.867,164.977 142.739 C 166.076 142.553,166.854 142.666,168.769 143.292 L 171.178 144.079 172.762 143.391 C 178.825 140.760,181.916 144.015,182.181 153.308 L 182.335 158.690 183.333 160.197 C 185.226 163.052,183.746 165.454,180.474 164.840 C 177.327 164.250,176.276 161.981,176.039 155.263 C 175.829 149.324,175.504 148.265,173.946 148.445 C 172.484 148.615,172.223 149.709,172.047 156.390 C 171.850 163.905,171.149 165.335,168.148 164.344 C 166.223 163.709,166.070 163.139,165.899 155.978 C 165.748 149.666,165.733 149.551,165.010 148.966 C 163.107 147.426,162.253 149.653,162.228 156.221 C 162.196 164.358,161.968 164.670,156.038 164.670 C 152.821 164.670,151.810 164.557,150.538 164.055 C 148.599 163.291,148.171 163.290,146.501 164.049 C 142.354 165.930,138.677 164.263,136.222 159.388 C 134.688 156.341,134.459 156.698,133.961 162.907 C 133.341 170.652,130.841 173.183,124.081 172.908 C 119.228 172.710,117.707 171.714,116.438 167.902 C 115.669 165.589,115.588 165.511,113.232 164.836 C 109.482 163.760,108.449 161.599,108.449 154.829 C 108.449 149.146,107.834 147.628,105.842 148.385 C 104.388 148.938,104.046 150.386,103.920 156.528 C 103.754 164.643,102.759 166.038,98.663 163.896 L 97.184 163.123 95.129 163.896 C 91.374 165.309,88.161 164.873,85.288 162.559 C 83.715 161.293,82.800 161.338,80.772 162.782 C 72.330 168.795,64.148 160.448,67.717 149.462 C 70.243 141.685,77.611 139.940,81.626 146.167 C 82.832 148.038,82.895 148.028,84.825 145.646 C 87.577 142.251,91.685 141.498,95.189 143.747 C 97.428 145.184,97.679 144.893,97.973 140.516 C 98.261 136.219,99.015 134.869,101.126 134.869 C 103.205 134.869,103.574 135.706,104.128 141.683 C 104.206 142.519,105.238 142.898,106.912 142.704 C 112.419 142.064,114.358 144.609,114.521 152.688 C 114.676 160.329,115.238 161.151,120.095 160.832 C 125.270 160.493,127.358 162.977,123.699 165.121 C 121.401 166.468,121.214 168.424,123.272 169.574 C 125.251 170.680,126.883 168.614,127.048 164.795 C 127.338 158.105,127.537 142.309,127.350 140.815 C 126.769 136.162,123.827 138.447,123.563 143.755 C 123.417 146.682,123.014 147.465,121.653 147.465 C 119.001 147.465,117.523 143.652,118.763 140.010 C 120.520 134.856,129.999 130.475,132.969 133.444 M286.296 133.608 C 286.616 133.928,286.968 134.792,287.077 135.528 C 287.317 137.140,289.212 147.332,290.068 151.613 C 292.710 164.825,292.686 165.797,289.752 164.377 C 282.123 160.684,271.934 151.937,267.725 145.469 C 263.156 138.447,261.755 134.779,263.351 134.017 C 265.285 133.093,285.422 132.734,286.296 133.608 M143.769 147.783 C 141.361 150.361,141.357 158.137,143.763 159.133 C 146.161 160.127,147.005 158.398,147.005 152.490 C 147.005 146.862,145.998 145.397,143.769 147.783 M74.969 147.765 C 73.774 148.960,73.699 151.542,74.856 151.707 C 75.558 151.807,76.852 150.391,77.247 149.090 C 77.734 147.486,76.162 146.572,74.969 147.765 M90.368 147.794 C 89.001 149.262,88.471 155.005,89.486 157.367 C 90.625 160.016,94.367 160.603,96.345 158.444 C 98.917 155.637,98.508 149.923,95.735 149.923 C 94.557 149.923,94.272 149.771,93.153 148.541 C 91.751 147.000,91.237 146.862,90.368 147.794 M145.736 149.693 C 146.506 152.565,145.724 157.604,144.509 157.604 C 143.449 157.604,143.082 156.409,143.235 153.456 C 143.420 149.919,145.113 147.370,145.736 149.693 M92.484 150.703 C 92.887 151.132,93.806 151.631,94.525 151.813 C 98.066 152.704,96.961 158.218,93.241 158.218 C 91.033 158.218,90.323 157.134,90.323 153.763 C 90.323 150.291,91.084 149.213,92.484 150.703 M79.877 153.185 C 79.286 153.611,78.111 154.310,77.266 154.740 C 74.131 156.334,73.418 157.968,75.346 159.143 C 79.064 161.410,83.072 158.095,82.204 153.471 C 81.957 152.154,81.404 152.086,79.877 153.185 M174.098 153.840 C 174.021 154.136,173.958 153.894,173.958 153.303 C 173.958 152.711,174.021 152.469,174.098 152.765 C 174.175 153.061,174.175 153.545,174.098 153.840 M80.745 155.864 C 80.918 156.759,79.151 158.218,77.894 158.218 C 76.597 158.218,76.057 157.431,76.972 156.874 C 79.910 155.089,80.561 154.915,80.745 155.864 " stroke="none" fill="#d0d4e0" fill-rule="evenodd"></path></g></svg>